<svg width="181" height="180" viewBox="0 0 181 180" fill="none" xmlns="http://www.w3.org/2000/svg">
<path d="M90.3359 180C140.042 180 180.336 139.706 180.336 90C180.336 40.2944 140.042 0 90.3359 0C40.6303 0 0.335938 40.2944 0.335938 90C0.335938 139.706 40.6303 180 90.3359 180Z" fill="white"/>
<path fill-rule="evenodd" clip-rule="evenodd" d="M89.9209 180C90.5764 179.999 91.2305 179.993 91.8831 179.981C117.315 179.459 140.155 168.387 156.206 150.965C146.603 133.958 130.671 121.009 111.615 115.326C126.748 107.439 137.083 91.5892 137.083 73.3215C137.083 47.1866 115.93 26 89.8354 26C63.7408 26 42.5878 47.1866 42.5878 73.3215C42.5878 91.5892 52.9233 107.439 68.0562 115.326C49.0822 120.985 33.2061 133.846 23.5898 150.744C40.0286 168.706 63.6583 179.978 89.9209 180Z" fill="#B9B9B9"/>
</svg>
